Passive_04_3plates.mot
version=1
nRows=152
nColumns=19
inDegrees=yes
endheader
time	ground_force_vx	ground_force_vy	ground_force_vz	ground_force_px	ground_force_py	ground_force_pz	1_ground_force_vx	1_ground_force_vy	1_ground_force_vz	1_ground_force_px	1_ground_force_py	1_ground_force_pz	ground_torque_x	ground_torque_y	ground_torque_z	1_ground_torque_x	1_ground_torque_y	1_ground_torque_z	
0.26802	-57.049	672.73	46.287	-0.34913	0	0.18143	0	0	0	0	0	0	0	-3.7781	0	0	0	0
0.26844	-56.569	671.94	46.328	-0.34894	0	0.18153	0	0	0	0	0	0	0	-3.7347	0	0	0	0
0.26885	-56.331	670.7	46.241	-0.34892	0	0.18152	0	0	0	0	0	0	0	-3.748	0	0	0	0
0.26927	-55.876	668.49	46.106	-0.34863	0	0.18132	0	0	0	0	0	0	0	-3.6874	0	0	0	0
0.26969	-55.616	667.44	46.081	-0.34846	0	0.18126	0	0	0	0	0	0	0	-3.6441	0	0	0	0
0.2701	-55.421	666.46	45.992	-0.34851	0	0.1814	0	0	0	0	0	0	0	-3.5876	0	0	0	0
0.27052	-55.005	665.75	46.081	-0.34844	0	0.18153	0	0	0	0	0	0	0	-3.6271	0	0	0	0
0.27094	-54.618	663.81	45.751	-0.34841	0	0.18133	0	0	0	0	0	0	0	-3.5751	0	0	0	0
0.27136	-54.487	662.75	45.597	-0.3482	0	0.18149	0	0	0	0	0	0	0	-3.5403	0	0	0	0
0.27177	-54.117	661.25	45.769	-0.34809	0	0.18146	0	0	0	0	0	0	0	-3.4885	0	0	0	0
0.27219	-53.835	660.01	45.854	-0.348	0	0.18136	0	0	0	0	0	0	0	-3.4715	0	0	0	0
0.27261	-53.292	658.86	45.634	-0.348	0	0.18141	0	0	0	0	0	0	0	-3.428	0	0	0	0
0.27302	-53.032	657.36	45.37	-0.34766	0	0.1814	0	0	0	0	0	0	0	-3.4107	0	0	0	0
0.27344	-52.664	655.77	45.259	-0.3475	0	0.18126	0	0	0	0	0	0	0	-3.3936	0	0	0	0
0.27386	-52.555	654.88	45.368	-0.34759	0	0.18147	0	0	0	0	0	0	0	-3.3417	0	0	0	0
0.27427	-52.274	653.56	45.342	-0.3475	0	0.18138	0	0	0	0	0	0	0	-3.2592	0	0	0	0
0.27469	-51.841	651.97	45.056	-0.34725	0	0.18121	0	0	0	0	0	0	0	-3.2419	0	0	0	0
0.27511	-51.622	650.56	45.229	-0.34705	0	0.18138	0	0	0	0	0	0	0	-3.2162	0	0	0	0
0.27552	-51.145	649.32	45.139	-0.34703	0	0.18123	0	0	0	0	0	0	0	-3.1816	0	0	0	0
0.27594	-50.974	646.67	44.985	-0.34675	0	0.18113	0	0	0	0	0	0	0	-3.143	0	0	0	0
0.27636	-50.496	645.69	44.852	-0.34687	0	0.18122	0	0	0	0	0	0	0	-3.0908	0	0	0	0
0.27677	-50.148	644.63	44.869	-0.34675	0	0.18129	0	0	0	0	0	0	0	-2.9865	0	0	0	0
0.27719	-49.842	643.49	44.871	-0.3465	0	0.1814	0	0	0	0	0	0	0	-3.0391	0	0	0	0
0.27761	-49.519	641.81	44.651	-0.34647	0	0.18116	0	0	0	0	0	0	0	-3.0306	0	0	0	0
0.27802	-49.214	640.66	44.538	-0.34629	0	0.18134	0	0	0	0	0	0	0	-2.9349	0	0	0	0
0.27844	-49.129	639.07	44.474	-0.34635	0	0.18142	0	0	0	0	0	0	0	-2.9267	0	0	0	0
0.27886	-48.673	637.04	44.538	-0.34601	0	0.1812	0	0	0	0	0	0	0	-2.9315	0	0	0	0
0.27928	-48.37	635.97	44.448	-0.34617	0	0.18131	0	0	0	0	0	0	0	-2.8577	0	0	0	0
0.27969	-48.087	634.39	44.556	-0.34598	0	0.18124	0	0	0	0	0	0	0	-2.832	0	0	0	0
0.28011	-47.588	633.23	44.357	-0.34591	0	0.18126	0	0	0	0	0	0	0	-2.7973	0	0	0	0
0.28053	-47.48	631.74	44.289	-0.34557	0	0.18116	0	0	0	0	0	0	0	-2.7584	0	0	0	0
0.28094	-47.132	630.67	44.245	-0.34565	0	0.18136	0	0	0	0	0	0	0	-2.7368	0	0	0	0
0.28136	-46.764	628.3	44.329	-0.3453	0	0.18108	0	0	0	0	0	0	0	-2.7026	0	0	0	0
0.28178	-46.504	627.06	44.198	-0.34525	0	0.18119	0	0	0	0	0	0	0	-2.6854	0	0	0	0
0.28219	-46.442	625.03	43.958	-0.3451	0	0.18107	0	0	0	0	0	0	0	-2.6727	0	0	0	0
0.28261	-45.854	623.96	43.976	-0.34511	0	0.18114	0	0	0	0	0	0	0	-2.6033	0	0	0	0
0.28303	-45.834	622.03	43.999	-0.3449	0	0.18108	0	0	0	0	0	0	0	-2.6082	0	0	0	0
0.28344	-45.465	621.14	43.845	-0.34486	0	0.18108	0	0	0	0	0	0	0	-2.5996	0	0	0	0
0.28386	-45.204	619.46	43.887	-0.34472	0	0.18114	0	0	0	0	0	0	0	-2.5434	0	0	0	0
0.28428	-44.986	618.58	43.843	-0.34469	0	0.18132	0	0	0	0	0	0	0	-2.5087	0	0	0	0
0.28469	-44.771	616.64	43.863	-0.34458	0	0.18129	0	0	0	0	0	0	0	-2.4613	0	0	0	0
0.28511	-44.424	614.08	43.991	-0.34418	0	0.18102	0	0	0	0	0	0	0	-2.4402	0	0	0	0
0.28553	-44.144	613.28	43.663	-0.34428	0	0.18097	0	0	0	0	0	0	0	-2.4184	0	0	0	0
0.28594	-43.885	611.52	43.53	-0.34413	0	0.18098	0	0	0	0	0	0	0	-2.3665	0	0	0	0
0.28636	-43.862	610.64	43.598	-0.34409	0	0.18122	0	0	0	0	0	0	0	-2.3755	0	0	0	0
0.28678	-43.535	609.4	43.683	-0.34395	0	0.18126	0	0	0	0	0	0	0	-2.3323	0	0	0	0
0.28719	-43.061	607.18	43.398	-0.34402	0	0.18115	0	0	0	0	0	0	0	-2.3022	0	0	0	0
0.28761	-42.603	606.39	43.285	-0.34389	0	0.18127	0	0	0	0	0	0	0	-2.2413	0	0	0	0
0.28803	-42.408	604.36	43.524	-0.34361	0	0.18109	0	0	0	0	0	0	0	-2.2289	0	0	0	0
0.28845	-42.148	603.3	43.24	-0.34353	0	0.18122	0	0	0	0	0	0	0	-2.2072	0	0	0	0
0.28886	-42.107	601.1	43.369	-0.3432	0	0.1809	0	0	0	0	0	0	0	-2.1904	0	0	0	0
0.28928	-41.715	599.07	43.476	-0.34304	0	0.18095	0	0	0	0	0	0	0	-2.1387	0	0	0	0
0.2897	-41.388	598.45	43.499	-0.34313	0	0.18121	0	0	0	0	0	0	0	-2.1346	0	0	0	0
0.29011	-41.064	596.42	43.235	-0.34289	0	0.18109	0	0	0	0	0	0	0	-2.1175	0	0	0	0
0.29053	-40.914	595	43.105	-0.34297	0	0.18117	0	0	0	0	0	0	0	-2.0786	0	0	0	0
0.29095	-40.808	592.98	43.059	-0.34258	0	0.18088	0	0	0	0	0	0	0	-2.0573	0	0	0	0
0.29136	-40.503	591.56	43.211	-0.34265	0	0.18103	0	0	0	0	0	0	0	-2.0316	0	0	0	0
0.29178	-40.243	590.76	43.08	-0.34273	0	0.18106	0	0	0	0	0	0	0	-2.01	0	0	0	0
0.2922	-39.704	588.03	42.748	-0.34227	0	0.18067	0	0	0	0	0	0	0	-1.9712	0	0	0	0
0.29261	-39.877	586.97	42.838	-0.3422	0	0.18095	0	0	0	0	0	0	0	-1.9628	0	0	0	0
0.29303	-39.553	584.86	42.816	-0.34202	0	0.18078	0	0	0	0	0	0	0	-1.9721	0	0	0	0
0.29345	-39.14	583.79	42.834	-0.34204	0	0.18073	0	0	0	0	0	0	0	-1.907	0	0	0	0
0.29386	-38.792	582.47	42.744	-0.34184	0	0.18087	0	0	0	0	0	0	0	-1.855	0	0	0	0
0.29428	-38.748	581.32	42.941	-0.34188	0	0.18097	0	0	0	0	0	0	0	-1.8162	0	0	0	0
0.2947	-38.403	579.11	42.592	-0.34156	0	0.18086	0	0	0	0	0	0	0	-1.8427	0	0	0	0
0.29511	-38.141	578.76	42.57	-0.34165	0	0.18104	0	0	0	0	0	0	0	-1.8253	0	0	0	0
0.29553	-37.643	576.63	42.674	-0.34155	0	0.18078	0	0	0	0	0	0	0	-1.7344	0	0	0	0
0.29595	-37.447	575.49	42.521	-0.34134	0	0.18098	0	0	0	0	0	0	0	-1.7259	0	0	0	0
0.29637	-37.123	574.51	42.346	-0.34136	0	0.18099	0	0	0	0	0	0	0	-1.6955	0	0	0	0
0.29678	-37.06	572.13	42.389	-0.34122	0	0.18097	0	0	0	0	0	0	0	-1.6526	0	0	0	0
0.2972	-36.736	570.1	42.257	-0.341	0	0.18067	0	0	0	0	0	0	0	-1.6749	0	0	0	0
0.29762	-36.561	569.22	42.258	-0.34099	0	0.18097	0	0	0	0	0	0	0	-1.6577	0	0	0	0
0.29803	-36.281	567.1	42.235	-0.34085	0	0.18079	0	0	0	0	0	0	0	-1.6408	0	0	0	0
0.29845	-35.825	565.6	42.014	-0.34057	0	0.18088	0	0	0	0	0	0	0	-1.5843	0	0	0	0
0.29887	-35.696	564.01	42.014	-0.34047	0	0.18083	0	0	0	0	0	0	0	-1.5761	0	0	0	0
0.29928	-35.589	562.6	41.883	-0.34035	0	0.18073	0	0	0	0	0	0	0	-1.5546	0	0	0	0
0.2997	-35.307	561.45	41.772	-0.34037	0	0.18083	0	0	0	0	0	0	0	-1.5069	0	0	0	0
0.30012	-35.025	559.59	41.706	-0.34011	0	0.18086	0	0	0	0	0	0	0	-1.4899	0	0	0	0
0.30053	-34.896	558.18	41.707	-0.34004	0	0.18085	0	0	0	0	0	0	0	-1.4859	0	0	0	0
0.30095	-34.593	556.77	41.749	-0.34007	0	0.1808	0	0	0	0	0	0	0	-1.4515	0	0	0	0
0.30137	-34.378	555.17	41.573	-0.34005	0	0.18082	0	0	0	0	0	0	0	-1.4038	0	0	0	0
0.30178	-34.206	553.41	41.265	-0.33967	0	0.18074	0	0	0	0	0	0	0	-1.3561	0	0	0	0
0.3022	-34.012	551.73	41.135	-0.33955	0	0.18079	0	0	0	0	0	0	0	-1.3391	0	0	0	0
0.30262	-33.795	550.67	41.157	-0.33958	0	0.18081	0	0	0	0	0	0	0	-1.3525	0	0	0	0
0.30303	-33.446	549.7	41.243	-0.33951	0	0.18099	0	0	0	0	0	0	0	-1.3048	0	0	0	0
0.30345	-33.231	547.85	41.043	-0.33924	0	0.18093	0	0	0	0	0	0	0	-1.231	0	0	0	0
0.30387	-32.907	546.43	40.999	-0.33929	0	0.18068	0	0	0	0	0	0	0	-1.227	0	0	0	0
0.30428	-32.712	545.02	40.89	-0.33918	0	0.18082	0	0	0	0	0	0	0	-1.2186	0	0	0	0
0.3047	-32.691	543.87	40.695	-0.3391	0	0.18112	0	0	0	0	0	0	0	-1.1883	0	0	0	0
0.30512	-32.258	541.75	40.671	-0.33876	0	0.18078	0	0	0	0	0	0	0	-1.1845	0	0	0	0
0.30554	-31.977	540.42	40.54	-0.33883	0	0.18083	0	0	0	0	0	0	0	-1.163	0	0	0	0
0.30595	-31.784	538.74	40.189	-0.3386	0	0.18082	0	0	0	0	0	0	0	-1.1196	0	0	0	0
0.30637	-31.567	537.07	40.363	-0.33843	0	0.18072	0	0	0	0	0	0	0	-1.1071	0	0	0	0
0.30679	-31.328	536.71	40.298	-0.33859	0	0.18086	0	0	0	0	0	0	0	-1.0984	0	0	0	0
0.3072	-31.027	534.94	40.098	-0.3384	0	0.18064	0	0	0	0	0	0	0	-1.0421	0	0	0	0
0.30762	-30.788	533.53	39.902	-0.33833	0	0.18096	0	0	0	0	0	0	0	-0.99876	0	0	0	0
0.30804	-30.834	531.68	39.924	-0.33804	0	0.1807	0	0	0	0	0	0	0	-0.99928	0	0	0	0
0.30845	-30.487	530.44	39.77	-0.33794	0	0.18069	0	0	0	0	0	0	0	-0.98642	0	0	0	0
0.30887	-30.05	529.38	39.856	-0.33788	0	0.18093	0	0	0	0	0	0	0	-0.94316	0	0	0	0
0.30929	-30.011	527.7	39.636	-0.33778	0	0.18076	0	0	0	0	0	0	0	-0.89989	0	0	0	0
0.3097	-29.6	525.93	39.46	-0.33774	0	0.18059	0	0	0	0	0	0	0	-0.86537	0	0	0	0
0.31012	-29.47	524.87	39.482	-0.33778	0	0.18083	0	0	0	0	0	0	0	-0.83519	0	0	0	0
0.31054	-29.428	523.37	39.198	-0.3374	0	0.18092	0	0	0	0	0	0	0	-0.82231	0	0	0	0
0.31095	-29.144	522.58	39.351	-0.33749	0	0.18098	0	0	0	0	0	0	0	-0.81829	0	0	0	0
0.31137	-28.887	520.98	38.849	-0.33733	0	0.18102	0	0	0	0	0	0	0	-0.79658	0	0	0	0
0.31179	-28.581	520.1	38.936	-0.33731	0	0.18111	0	0	0	0	0	0	0	-0.77943	0	0	0	0
0.3122	-28.476	518.42	38.869	-0.33727	0	0.18093	0	0	0	0	0	0	0	-0.73627	0	0	0	0
0.31262	-28.192	517.36	38.934	-0.33721	0	0.18107	0	0	0	0	0	0	0	-0.72353	0	0	0	0
0.31304	-27.759	515.42	38.714	-0.33685	0	0.18092	0	0	0	0	0	0	0	-0.70206	0	0	0	0
0.31346	-27.633	513.74	38.538	-0.33673	0	0.1807	0	0	0	0	0	0	0	-0.66752	0	0	0	0
0.31387	-27.614	512.59	38.275	-0.33673	0	0.18074	0	0	0	0	0	0	0	-0.62409	0	0	0	0
0.31429	-27.157	511.53	38.143	-0.33662	0	0.18091	0	0	0	0	0	0	0	-0.58939	0	0	0	0
0.31471	-27.029	510.2	38.078	-0.33663	0	0.18079	0	0	0	0	0	0	0	-0.59409	0	0	0	0
0.31512	-26.792	508.96	37.773	-0.33659	0	0.18078	0	0	0	0	0	0	0	-0.58551	0	0	0	0
0.31554	-26.62	507.46	37.599	-0.33654	0	0.18085	0	0	0	0	0	0	0	-0.56403	0	0	0	0
0.31596	-26.555	506.49	37.553	-0.33635	0	0.18093	0	0	0	0	0	0	0	-0.50322	0	0	0	0
0.31637	-26.274	504.46	37.551	-0.33611	0	0.18087	0	0	0	0	0	0	0	-0.4558	0	0	0	0
0.31679	-26.081	502.69	37.357	-0.33605	0	0.18079	0	0	0	0	0	0	0	-0.49105	0	0	0	0
0.31721	-25.753	502.25	37.158	-0.33584	0	0.18101	0	0	0	0	0	0	0	-0.4474	0	0	0	0
0.31762	-25.734	501.63	37.179	-0.33597	0	0.18084	0	0	0	0	0	0	0	-0.41273	0	0	0	0
0.31804	-25.343	500.03	36.918	-0.33594	0	0.18112	0	0	0	0	0	0	0	-0.41737	0	0	0	0
0.31846	-25.281	498.36	36.72	-0.33579	0	0.18104	0	0	0	0	0	0	0	-0.36103	0	0	0	0
0.31887	-25.214	498.09	36.766	-0.33579	0	0.1813	0	0	0	0	0	0	0	-0.37422	0	0	0	0
0.31929	-24.827	495.53	36.523	-0.33528	0	0.18087	0	0	0	0	0	0	0	-0.3529	0	0	0	0
0.31971	-24.524	494.47	36.325	-0.33518	0	0.18088	0	0	0	0	0	0	0	-0.31816	0	0	0	0
0.32012	-24.545	493.94	36.392	-0.33529	0	0.18116	0	0	0	0	0	0	0	-0.3184	0	0	0	0
0.32054	-24.113	492.52	36.105	-0.33527	0	0.18104	0	0	0	0	0	0	0	-0.24446	0	0	0	0
0.32096	-23.964	490.23	35.908	-0.33486	0	0.18092	0	0	0	0	0	0	0	-0.21878	0	0	0	0
0.32137	-23.854	490.49	35.907	-0.33503	0	0.18116	0	0	0	0	0	0	0	-0.18821	0	0	0	0
0.32179	-23.769	488.99	35.777	-0.3349	0	0.18105	0	0	0	0	0	0	0	-0.18854	0	0	0	0
0.32221	-23.508	487.84	35.752	-0.33461	0	0.18104	0	0	0	0	0	0	0	-0.1452	0	0	0	0
0.32263	-23.271	486.69	35.621	-0.33469	0	0.18107	0	0	0	0	0	0	0	-0.12365	0	0	0	0
0.32304	-23.053	485.54	35.579	-0.33457	0	0.1813	0	0	0	0	0	0	0	-0.1283	0	0	0	0
0.32346	-22.947	484.39	35.449	-0.33475	0	0.18125	0	0	0	0	0	0	0	-0.12422	0	0	0	0
0.32388	-22.688	483.06	35.251	-0.33446	0	0.18099	0	0	0	0	0	0	0	-0.10697	0	0	0	0
0.32429	-22.385	482.27	35.029	-0.33433	0	0.181	0	0	0	0	0	0	0	-0.041608	0	0	0	0
0.32471	-22.257	480.76	34.767	-0.33425	0	0.18117	0	0	0	0	0	0	0	-0.0026295	0	0	0	0
0.32513	-22.192	479.88	34.747	-0.33419	0	0.1812	0	0	0	0	0	0	0	-0.02903	0	0	0	0
0.32554	-21.846	478.64	34.614	-0.33411	0	0.18094	0	0	0	0	0	0	0	-0.0074585	0	0	0	0
0.32596	-21.673	477.14	34.657	-0.33392	0	0.18095	0	0	0	0	0	0	0	0.0095395	0	0	0	0
0.32638	-21.543	476.96	34.635	-0.3342	0	0.18107	0	0	0	0	0	0	0	0.053066	0	0	0	0
0.32679	-21.327	475.55	34.392	-0.33377	0	0.18117	0	0	0	0	0	0	0	0.12265	0	0	0	0
0.32721	-20.979	474.93	34.086	-0.33367	0	0.1812	0	0	0	0	0	0	0	0.10963	0	0	0	0
0.32763	-20.873	473.77	34.044	-0.33389	0	0.18118	0	0	0	0	0	0	0	0.10493	0	0	0	0
0.32804	-20.655	472.45	34.063	-0.33353	0	0.18138	0	0	0	0	0	0	0	0.17434	0	0	0	0
0.32846	-20.352	471.21	33.867	-0.33335	0	0.1812	0	0	0	0	0	0	0	0.148	0	0	0	0
0.32888	-20.201	470.15	33.735	-0.33326	0	0.18118	0	0	0	0	0	0	0	0.18704	0	0	0	0
0.32929	-20.158	469.97	33.736	-0.33349	0	0.18128	0	0	0	0	0	0	0	0.18259	0	0	0	0
0.32971	-19.856	468.91	33.495	-0.33344	0	0.18132	0	0	0	0	0	0	0	0.22606	0	0	0	0
0.33013	-19.704	468.38	33.297	-0.33338	0	0.18149	0	0	0	0	0	0	0	0.27838	0	0	0	0
0.33055	-19.552	466.62	33.253	-0.3328	0	0.18141	0	0	0	0	0	0	0	0.25181	0	0	0	0
0.33096	-19.185	466.08	32.99	-0.33311	0	0.18135	0	0	0	0	0	0	0	0.29978	0	0	0	0
